<?xml version="1.0" encoding="utf-8"?>
<!-- Generator: Adobe Illustrator 24.2.1, SVG Export Plug-In . SVG Version: 6.00 Build 0)  -->
<svg version="1.1" id="Layer_1" xmlns="http://www.w3.org/2000/svg" xmlns:xlink="http://www.w3.org/1999/xlink" x="0px" y="0px"
	 width="387.1px" height="117.9px" viewBox="0 0 387.1 117.9" style="enable-background:new 0 0 387.1 117.9;" xml:space="preserve"
	>
<style type="text/css">
	.st0{fill:#599140;}
	.st1{fill:#473F3D;}
	.st2{fill:none;}
</style>
<g>
	<g>
		<g>
			<path class="st0" d="M20.9,17.3c-5.6-0.3-9,1.5-13.4,5.4C0.1,29.1,0,39.2,0,39.2s10.1,1.2,17.3-5.3c4.7-4,7-7.3,7.2-13.3
				c0.1-2.1,1.2-4.1,3-5.2c0.4-0.2,0.8-0.4,1.2-0.6h-0.2c-0.8,0-1.3-0.3-1.7-0.8c-2.1,2.6-10.4,12.4-19.1,17.8
				C7.8,31.8,13.8,26.9,20.9,17.3z"/>
		</g>
		<g>
			<path class="st0" d="M9.4,6.8c0,0,4.9,1.7,13,2.6c-1.6-3.3-3.8-4.8-7.5-6.2C8.8,0.8,2.6,3.9,2.6,3.9s2.5,6.4,8.7,8.7
				c3.7,1.5,6.4,1.8,9.9,0.3c1.2-0.5,2.5-0.6,3.8-0.3l1.4,0.4c-0.1-0.5-0.2-1.2-0.2-2C25.5,12.5,16,10.2,9.4,6.8z"/>
		</g>
	</g>
	<g>
		<g>
			<path class="st0" d="M367.6,82c4.5,0.9,7.6-0.2,11.6-3c6.7-4.3,8-12.6,8-12.6s-8.1-2.1-14.7,2.4c-4.3,2.7-6.5,5.2-7.3,10
				c-0.3,1.7-1.4,3.2-3,3.9c-0.3,0.1-0.7,0.3-1.1,0.4l0.1,0c0.6,0.1,1,0.4,1.3,0.8c2-1.9,9.8-9,17.6-12.4
				C379.9,71.5,374.5,74.9,367.6,82z"/>
		</g>
		<g>
			<path class="st0" d="M375.8,91.8c0,0-3.8-2-10.3-3.6c0.9,2.9,2.5,4.4,5.4,5.9c4.8,2.7,10.1,0.8,10.1,0.8s-1.3-5.5-6.1-8.1
				c-2.9-1.6-5-2.2-8-1.3c-1,0.3-2.2,0.2-3.1-0.2l-1.1-0.5c0.1,0.5,0,1,0,1.7C363.3,85.3,370.8,88.3,375.8,91.8z"/>
		</g>
	</g>
	<g>
		<g>
			<path class="st1" d="M28.6,14.8h0.2h12.6v43.3c0,1.7,1.4,2.6,4.8,2.6H49c3.4,0,4.8-0.9,4.8-2.6V14.8h12.8c1.7,0,2.4-1.2,2.4-4
				V8.3c0-2.8-0.7-4-2.4-4h-38c-1.7,0-2.4,1.2-2.4,4v2.5c0,0.1,0,0.1,0,0.2c0,0.8,0.1,1.5,0.2,2c0.1,0.4,0.3,0.8,0.5,1
				C27.3,14.6,27.8,14.8,28.6,14.8z"/>
		</g>
		<g>
			<path class="st1" d="M65.4,21.3c0,1.6,1,3.3,1,11.3v25.4c0,1.7,1.4,2.6,4.8,2.6h2.2c3.4,0,4.8-0.9,4.8-2.6V32.3
				c1-1.6,3.1-4,6.4-4c1.6,0,2.6,0.6,3.8,0.6c1.6,0,2.5-5.2,2.5-6.7c0-1.6-0.6-4.3-4.6-4.3c-4.7,0-7.1,3-8.7,6.1
				c-0.5-2-0.6-5.2-3.2-5.2C72.4,18.8,65.4,19.4,65.4,21.3z"/>
		</g>
		<g>
			<path class="st2" d="M349,27.3c-3.4,0-6.3,1.9-7.2,8.1h13C354.8,30.7,353,27.3,349,27.3z"/>
		</g>
		<g>
			<path class="st2" d="M150.8,27.3c-3.4,0-6.3,1.9-7.2,8.1h13C156.6,30.7,154.8,27.3,150.8,27.3z"/>
		</g>
		<g>
			<path class="st2" d="M110.7,27.3c-3.4,0-6.3,1.9-7.2,8.1h13C116.5,30.7,114.7,27.3,110.7,27.3z"/>
		</g>
		<g>
			<path class="st1" d="M349.8,17.9c-11.5,0-19.5,6.1-19.5,21.9c0,12.9,6.4,21.3,20.9,21.3c4.5,0,14.4-1.8,14.4-5.8
				c0-1.6-2.4-6.1-4.2-6.1c-1.1,0-4.7,2.5-9.7,2.5c-5.2,0-8.7-2-9.2-8.4H363c1,0,4.1-3.4,4.1-4.7C367.1,27.4,362.4,17.9,349.8,17.9z
				 M342.6,35.4c1-6.2,3.9-8.1,7.2-8.1c4,0,5.8,3.5,5.8,8.1H342.6z"/>
		</g>
		<g>
			<path class="st2" d="M233.6,58.6c5.5,0,9.6-1.5,12.4-4.7c2.9-3.2,4.3-8.1,4.3-14.4c0-6.3-1.5-11.2-4.3-14.4
				c-2.8-3.2-6.9-4.7-12.4-4.7c-5.5,0-9.6,1.5-12.4,4.7c-2.9,3.2-4.4,8.1-4.4,14.4c0,6.3,1.5,11.2,4.4,14.4
				C224,57.1,228.1,58.6,233.6,58.6z M223.6,28.4c2.3-2.6,5.7-3.9,10-3.9c4.3,0,7.7,1.3,10,3.9c2.3,2.6,3.5,6.3,3.5,11.1
				c0,4.8-1.2,8.6-3.5,11.2c-2.3,2.6-5.6,3.9-10,3.9c-4.3,0-7.7-1.3-10-3.9c-2.3-2.6-3.5-6.3-3.5-11.2
				C220.1,34.7,221.3,31,223.6,28.4z"/>
		</g>
		<g>
			<path class="st2" d="M233.6,51.5c3.5,0,6-0.9,7.7-2.9c1.8-2,2.7-5.1,2.7-9.1c0-4-0.9-7.1-2.7-9.1c-1.7-1.9-4.2-2.9-7.7-2.9
				c-3.5,0-6,0.9-7.7,2.9c-1.8,2-2.7,5.1-2.7,9.1c0,4,0.9,7.1,2.7,9.1C227.6,50.6,230.2,51.5,233.6,51.5z M228.4,33.7
				c1.2-1.3,2.9-2,5.2-2c2.3,0,4,0.7,5.2,2c1.2,1.3,1.8,3.3,1.8,5.8c0,2.5-0.6,4.5-1.8,5.8c-1.2,1.3-2.9,2-5.2,2c-2.3,0-4-0.7-5.2-2
				c-1.2-1.3-1.8-3.3-1.8-5.8C226.6,37,227.2,35.1,228.4,33.7z"/>
		</g>
		<g>
			<path class="st1" d="M112.1,61.1c4.5,0,14.4-1.8,14.4-5.8c0-1.6-2.4-6.1-4.2-6.1c-1.1,0-4.7,2.5-9.7,2.5c-5.2,0-8.7-2-9.2-8.4
				h20.5c1,0,4.1-3.4,4.1-4.7c0-11.2-4.7-20.7-17.3-20.7c-11.5,0-19.5,6.1-19.5,21.9C91.2,52.7,97.6,61.1,112.1,61.1z M110.7,27.3
				c4,0,5.8,3.5,5.8,8.1h-13C104.4,29.2,107.3,27.3,110.7,27.3z"/>
		</g>
		<g>
			<path class="st1" d="M152.3,61.1c4.5,0,14.4-1.8,14.4-5.8c0-1.6-2.4-6.1-4.2-6.1c-1.1,0-4.7,2.5-9.7,2.5c-5.2,0-8.7-2-9.2-8.4
				h20.5c1,0,4.1-3.4,4.1-4.7c0-11.2-4.7-20.7-17.3-20.7c-11.5,0-19.5,6.1-19.5,21.9C131.3,52.7,137.8,61.1,152.3,61.1z M150.8,27.3
				c4,0,5.8,3.5,5.8,8.1h-13C144.6,29.2,147.5,27.3,150.8,27.3z"/>
		</g>
		<g>
			<path class="st1" d="M173.2,2.6v0.2v55.3c0,1.7,1.4,2.6,4.8,2.6h2.2c3.4,0,4.8-0.9,4.8-2.6V32.3c1-1.8,3.1-4.7,6.4-4.7
				c3.5,0,5.1,1.8,5.1,5v25.4c0,1.7,1.4,2.6,4.8,2.6h2.2c3.4,0,4.8-0.9,4.8-2.6V30.9c0-8.9-4.1-13-12.1-13c-4.8,0-8.8,2.5-11.3,5.5
				V2.6c0-1.7-1.4-2.6-4.8-2.6H178c-0.2,0-0.4,0-0.6,0C174.4,0.1,173.2,1,173.2,2.6z"/>
		</g>
		<g>
			<path class="st1" d="M276.6,61.1c11.1,0,17.7-5.6,17.7-15V21.4c0-1.4-0.8-3.1-4.7-3.1h-1.9c-3.8,0-4.7,1.7-4.7,3.1v24.2
				c0,3.3-2.7,5.6-6.5,5.6c-3.8,0-6.5-2.3-6.5-5.6V21.4c0-1.4-0.8-3.1-4.7-3.1h-1.9c-3.8,0-4.7,1.7-4.7,3.1v24.8
				C258.9,55.5,265.5,61.1,276.6,61.1z"/>
		</g>
		<g>
			<path class="st1" d="M310.9,51.8c-3.8,0-6.8-2.2-7.9-2.2c-1.7,0-4.3,4.3-4.3,5.9c0,3.9,7.1,5.7,14,5.7c9,0,15-5.5,15-14
				c0-14.3-16-11.2-16-17.1c0-2,1.6-2.9,4.3-2.9c3.6,0,6,1.7,6.8,1.7c1.6,0,3.5-4.9,3.5-5.9c0-4.5-9.2-5.1-11.9-5.1
				c-9.1,0-14.8,5-14.8,13c0,14.4,16,10.2,16,17.3C315.8,50.6,314.3,51.8,310.9,51.8z"/>
		</g>
		<g>
			<path class="st1" d="M233.6,61.7c6.4,0,11.3-1.9,14.7-5.7c3.4-3.8,5.1-9.3,5.1-16.4c0-7.1-1.7-12.6-5.1-16.4s-8.3-5.7-14.7-5.7
				c-6.4,0-11.3,1.9-14.7,5.7c-3.4,3.8-5.1,9.3-5.1,16.4c0,7.1,1.7,12.6,5.1,16.4C222.3,59.7,227.2,61.7,233.6,61.7z M221.2,25.1
				c2.8-3.2,6.9-4.7,12.4-4.7c5.5,0,9.6,1.5,12.4,4.7c2.9,3.2,4.3,8.1,4.3,14.4c0,6.3-1.5,11.2-4.3,14.4c-2.8,3.2-6.9,4.7-12.4,4.7
				c-5.5,0-9.6-1.5-12.4-4.7c-2.9-3.2-4.4-8.1-4.4-14.4C216.8,33.2,218.3,28.4,221.2,25.1z"/>
		</g>
		<g>
			<path class="st1" d="M233.6,54.6c4.3,0,7.7-1.3,10-3.9c2.3-2.6,3.5-6.3,3.5-11.2c0-4.8-1.2-8.6-3.5-11.1c-2.3-2.6-5.6-3.9-10-3.9
				c-4.3,0-7.7,1.3-10,3.9c-2.3,2.6-3.5,6.3-3.5,11.1c0,4.8,1.2,8.6,3.5,11.2C225.9,53.3,229.3,54.6,233.6,54.6z M225.9,30.4
				c1.7-1.9,4.3-2.9,7.7-2.9c3.5,0,6,0.9,7.7,2.9c1.8,2,2.7,5.1,2.7,9.1c0,4.1-0.9,7.1-2.7,9.1c-1.7,1.9-4.2,2.9-7.7,2.9
				c-3.5,0-6-0.9-7.7-2.9c-1.8-2-2.7-5.1-2.7-9.1C223.2,35.5,224.1,32.4,225.9,30.4z"/>
		</g>
		<g>
			<path class="st1" d="M233.6,47.3c2.3,0,4-0.7,5.2-2c1.2-1.3,1.8-3.3,1.8-5.8c0-2.5-0.6-4.5-1.8-5.8c-1.2-1.3-2.9-2-5.2-2
				c-2.3,0-4,0.7-5.2,2c-1.2,1.3-1.8,3.3-1.8,5.8c0,2.5,0.6,4.5,1.8,5.8C229.6,46.7,231.4,47.3,233.6,47.3z"/>
		</g>
	</g>
	<g>
		<path class="st1" d="M169.4,98.9l-5.9-10.5c-0.4-0.7-0.8-1.3-1.1-1.9l-0.2,0v2.3v17.5c0,1-1,1.5-2.9,1.5H158
			c-1.9,0-2.9-0.5-2.9-1.5V75.7c0-1,1-1.5,2.9-1.5h2.5c1.5,0,2.5,0.4,3,1.3l7.9,14.2l0.5,0.8l0.4-0.8l8.1-14.2
			c0.5-0.9,1.5-1.3,3-1.3h2.5c1.9,0,2.9,0.5,2.9,1.5v30.6c0,1-1,1.5-2.9,1.5h-1.4c-1.9,0-2.9-0.5-2.9-1.5V88.9v-2.3l-0.2,0
			c-0.3,0.5-0.6,1.2-1.1,1.9l-5.9,10.5c-0.4,0.6-1.1,0.9-1.9,0.9h-1.4C170.5,99.8,169.8,99.5,169.4,98.9z"/>
		<path class="st1" d="M195.3,106.2c-1.1-1.3-1.7-3-1.7-5.1c0-2.6,0.9-4.7,2.8-6.4c1.9-1.7,5.5-2.5,10.9-2.5v-1.6
			c0-0.9-0.3-1.6-0.9-2.1c-0.6-0.4-1.5-0.7-2.8-0.7c-1.1,0-2,0.1-2.8,0.3c-0.8,0.2-1.5,0.5-2.2,0.8s-1,0.4-1.1,0.4
			c-0.3,0-0.7-0.2-1.1-0.7c-0.4-0.5-0.7-1-1-1.6c-0.3-0.6-0.4-1.1-0.4-1.5c0-0.5,0.4-1.1,1.2-1.6c0.8-0.5,1.9-0.9,3.3-1.2
			c1.4-0.3,2.9-0.5,4.6-0.5c3.6,0,6.2,0.7,7.8,2.1c1.6,1.4,2.4,3.4,2.4,5.9v9c0,1.5,0,2.6,0.1,3.3c0.1,0.8,0.2,1.6,0.3,2.5
			c0.1,0.4,0.1,0.8,0.1,1.1c0,0.5-0.6,0.9-1.9,1.1c-1.3,0.3-2.4,0.4-3.4,0.4c-0.6,0-1-0.2-1.2-0.7c-0.2-0.5-0.4-1-0.5-1.5
			c-0.1-0.5-0.2-0.9-0.2-1.1c-0.2,0.4-0.6,0.8-1.1,1.4c-0.6,0.6-1.4,1.1-2.4,1.6c-1,0.5-2.2,0.7-3.5,0.7
			C198.3,108.2,196.5,107.5,195.3,106.2z M205.6,101.7c0.8-0.6,1.4-1.3,1.8-2.2v-2.6c-4.5,0-6.7,1.2-6.7,3.5c0,0.6,0.2,1.1,0.6,1.5
			s1,0.6,1.8,0.6C204,102.6,204.8,102.3,205.6,101.7z"/>
		<path class="st1" d="M220.1,106.3V91.2c0-1.4,0-2.5-0.1-3.2c-0.1-0.7-0.2-1.6-0.3-2.5c-0.1-0.4-0.1-0.8-0.1-1
			c0-0.5,0.6-0.9,1.9-1.1c1.3-0.3,2.4-0.4,3.4-0.4c0.6,0,1,0.2,1.2,0.6c0.2,0.4,0.4,0.9,0.5,1.4c0.1,0.5,0.2,0.9,0.2,1.1
			c0.6-1.1,1.3-2,2.1-2.7c0.8-0.7,1.8-1,3.1-1c1,0,1.7,0.3,2.1,0.8c0.4,0.5,0.6,1.1,0.6,1.8c0,0.7-0.1,1.5-0.4,2.5
			c-0.3,1-0.6,1.5-1.1,1.5c-0.2,0-0.5-0.1-1-0.2c-0.5-0.1-0.9-0.2-1.2-0.2c-0.9,0-1.6,0.2-2.3,0.7c-0.7,0.5-1.2,1-1.6,1.7v15.3
			c0,1-1,1.5-2.9,1.5h-1.3C221,107.9,220.1,107.4,220.1,106.3z"/>
		<path class="st1" d="M259.3,107.2c0,0.5-0.9,0.7-2.7,0.7h-2c-1.6,0-2.5-0.3-2.9-0.9L245,96l-0.2,0v10.3c0,1-1,1.5-2.9,1.5h-1.3
			c-1.9,0-2.9-0.5-2.9-1.5V73.2c0-1,1-1.5,2.9-1.5h1.3c1.9,0,2.9,0.5,2.9,1.5v18.9l0.2,0l5.8-8.7c0.3-0.4,0.6-0.6,1.1-0.7
			c0.4-0.1,1.1-0.2,1.9-0.2h1.8c1.8,0,2.7,0.2,2.7,0.7c0,0.3-0.1,0.6-0.4,1l-6.6,9.5l7.8,12.3C259.1,106.5,259.3,106.9,259.3,107.2z
			"/>
		<path class="st1" d="M263.4,104.8c-2.1-2.2-3.1-5.4-3.1-9.3c0-4.5,1-7.8,3.1-9.9s4.9-3.2,8.5-3.2c3.5,0,6.1,1.1,7.8,3.4
			c1.7,2.3,2.5,5.3,2.5,8.9c0,0.4-0.3,0.9-1,1.7c-0.7,0.8-1.1,1.1-1.5,1.1h-12.2c0.2,1.8,0.7,3.1,1.6,3.9c0.9,0.8,2.2,1.1,3.9,1.1
			c0.9,0,1.7-0.1,2.4-0.3c0.7-0.2,1.5-0.5,2.3-0.8c0.5-0.3,0.9-0.4,1.1-0.4c0.3,0,0.7,0.2,1.1,0.7c0.4,0.5,0.7,1,1,1.6
			c0.3,0.6,0.4,1,0.4,1.4c0,0.7-0.5,1.4-1.5,1.9c-1,0.5-2.2,0.9-3.5,1.2c-1.4,0.3-2.6,0.4-3.6,0.4
			C268.6,108.2,265.4,107,263.4,104.8z M275.3,92.8c0-1.5-0.3-2.6-0.9-3.5c-0.6-0.9-1.4-1.3-2.6-1.3c-2.4,0-3.8,1.6-4.3,4.8H275.3z"
			/>
		<path class="st1" d="M287,100.4V88.4h-0.8c-0.5,0-0.9-0.2-1.1-0.6c-0.2-0.4-0.3-1-0.3-1.8v-0.8c0-0.8,0.1-1.4,0.3-1.8
			c0.2-0.4,0.6-0.6,1.1-0.6h0.8l0.6-4.5c0.2-1,1-1.5,2.6-1.5h1.5c1.6,0,2.4,0.5,2.4,1.5v4.5h2.3c0.5,0,0.9,0.2,1.1,0.6
			c0.2,0.4,0.3,1,0.3,1.8V86c0,0.8-0.1,1.4-0.3,1.8c-0.2,0.4-0.6,0.6-1.1,0.6h-2.3v12.1c0,0.7,0.1,1.3,0.4,1.6
			c0.3,0.3,0.7,0.5,1.3,0.5c0.2,0,0.4,0,0.6-0.1s0.5-0.1,0.6-0.1c0.3,0,0.5,0.2,0.8,0.7c0.2,0.5,0.4,1,0.5,1.6
			c0.1,0.6,0.2,1,0.2,1.1c0,1.6-1.5,2.3-4.6,2.3C289.3,108.2,287,105.6,287,100.4z"/>
		<path class="st1" d="M302.2,77.8v-3.4c0-1.2,1.2-1.8,3.5-1.8c2.4,0,3.5,0.6,3.5,1.8v3.4c0,1.2-1.2,1.8-3.5,1.8
			C303.4,79.7,302.2,79.1,302.2,77.8z M302.2,106.3V84.2c0-1,1-1.5,2.9-1.5h1.3c1.9,0,2.9,0.5,2.9,1.5v22.1c0,1-1,1.5-2.9,1.5h-1.3
			C303.2,107.9,302.2,107.4,302.2,106.3z"/>
		<path class="st1" d="M314.8,106.3V91.2c0-1.4,0-2.5-0.1-3.2c-0.1-0.7-0.2-1.6-0.3-2.5c-0.1-0.4-0.1-0.8-0.1-1
			c0-0.5,0.6-0.9,1.9-1.1c1.3-0.3,2.4-0.4,3.4-0.4c0.6,0,1,0.2,1.2,0.6c0.2,0.4,0.4,0.9,0.5,1.4c0.1,0.5,0.2,0.9,0.2,1.1
			c0.8-1,1.8-1.9,3.1-2.6c1.3-0.7,2.6-1.1,4.1-1.1c2.4,0,4.2,0.6,5.3,1.9s1.7,3.2,1.7,5.9v16.2c0,1-1,1.5-2.9,1.5h-1.3
			c-1.9,0-2.9-0.5-2.9-1.5V91.2c0-1-0.2-1.7-0.7-2.2c-0.4-0.5-1.2-0.7-2.2-0.7c-0.9,0-1.6,0.3-2.3,0.8c-0.7,0.6-1.2,1.2-1.6,1.9
			v15.3c0,1-1,1.5-2.9,1.5h-1.3C315.7,107.9,314.8,107.4,314.8,106.3z"/>
		<path class="st1" d="M338.9,111.3c0-1.2,0.4-2.3,1.1-3.3c0.7-1,1.8-1.7,3.2-2.2l0-0.2c-0.7-0.3-1.2-0.8-1.5-1.4
			c-0.4-0.6-0.5-1.4-0.5-2.2s0.2-1.5,0.7-2.2c0.5-0.7,1.2-1.3,2.1-1.7c-2.6-1.4-3.9-3.8-3.9-7.1c0-2.9,0.9-5,2.8-6.4
			c1.9-1.4,4.4-2.1,7.4-2.1c1.2,0,2.5,0.1,3.7,0.4h7.7c0.5,0,0.9,0.2,1.1,0.6c0.2,0.4,0.3,1,0.3,1.8V86c0,1.5-0.4,2.2-1.1,2.2
			c-0.3,0-0.6,0-1,0c-0.4,0-0.8-0.1-1.1-0.1l-0.1,0.2c0.2,0.3,0.4,0.7,0.5,1.2s0.2,1,0.2,1.5c0,2.8-0.9,5-2.7,6.4
			c-1.8,1.4-4.2,2.1-7.1,2.1c-1.9,0-2.9,0.4-2.9,1.3c0,0.5,0.3,0.9,1,1.1c0.7,0.2,1.8,0.4,3.4,0.7c1.1,0.1,2,0.3,2.6,0.4
			c2.3,0.4,4.1,1.2,5.4,2.2c1.3,1,2,2.6,2,4.8c0,1.6-0.5,3.1-1.5,4.3c-1,1.2-2.5,2.2-4.3,2.8c-1.9,0.7-4,1-6.5,1
			C342.7,117.9,338.9,115.7,338.9,111.3z M354.4,111.7c0.8-0.4,1.2-1,1.2-1.7s-0.5-1.3-1.6-1.6s-3-0.6-5.8-0.8
			c-0.8,0.3-1.4,0.7-1.9,1.1c-0.5,0.5-0.7,0.9-0.7,1.5c0,0.7,0.4,1.2,1.2,1.6c0.8,0.4,2.1,0.6,3.8,0.6
			C352.4,112.3,353.6,112.1,354.4,111.7z M353.1,93.4c0.7-0.6,1-1.4,1-2.5c0-1.1-0.3-2-1-2.6c-0.7-0.6-1.5-0.8-2.6-0.8
			c-1.1,0-1.9,0.3-2.6,0.8s-1,1.4-1,2.6c0,1.1,0.3,2,1,2.5c0.7,0.6,1.5,0.8,2.6,0.8C351.5,94.2,352.4,94,353.1,93.4z"/>
	</g>
</g>
</svg>
